<svg version="1.1" xmlns="http://www.w3.org/2000/svg" viewBox="0 0 975.66015625 597.56640625" width="975.66015625" height="597.56640625">
  <!-- svg-source:excalidraw -->
  
  <defs>
    <style>
      @font-face {
        font-family: "Virgil";
        src: url("https://excalidraw.com/Virgil.woff2");
      }
      @font-face {
        font-family: "Cascadia";
        src: url("https://excalidraw.com/Cascadia.woff2");
      }
    </style>
  </defs>
  <rect x="0" y="0" width="975.66015625" height="597.56640625" fill="#ffffff"></rect><g stroke-linecap="round" transform="translate(330.21484375 124.858154296875) rotate(0 32 154)"><path d="M1.74 1.95 C26.48 1.11, 51.45 -1.19, 65.9 0.85 M0.08 0.87 C13.72 -0.21, 28.83 0.71, 64.62 0.63 M63.64 -1.36 C62.47 81.5, 63.37 160.39, 64.66 308.56 M64.63 0.67 C64.78 109.8, 64.57 221.01, 64.69 307.97 M64.02 308.46 C42.49 309.9, 22.1 309.41, -0.06 307.11 M64.12 308.11 C43.66 308.06, 22.66 307.13, 0.12 308.18 M0.37 308.72 C-0.69 184.82, 1.37 64.3, 0.22 1.18 M-0.7 307.88 C0.37 243.81, 0.92 178.52, -0.44 0.16" stroke="#000000" stroke-width="1" fill="none"></path></g><g transform="translate(337.21484375 266.358154296875) rotate(0 25 12.5)"><text x="25" y="18" font-family="Virgil, Segoe UI Emoji" font-size="20px" fill="#000000" text-anchor="middle" style="white-space: pre;" direction="ltr">Nginx</text></g><g stroke-linecap="round" transform="translate(487.18359375 131.076904296875) rotate(0 44 42.5)"><path d="M-0.76 -1.16 C22.98 2.23, 49.37 -0.68, 88.98 -0.02 M-0.82 -0.63 C31.58 -1.4, 64.81 -1.26, 88.73 -0.2 M88.99 -0.88 C88.22 22.07, 88.8 47.01, 87.15 85.15 M87.71 -0.24 C87.23 25.39, 87.96 49.29, 87.85 84.96 M89 84.18 C61.22 84.05, 36.04 84.93, 1.63 84.28 M87.82 84.9 C55.15 84.37, 19.72 85.37, -0.04 85.2 M1.02 86.76 C1.83 58.02, 0.4 29.83, 1.47 0.81 M-0.84 85.63 C-0.08 63.85, 0.36 42.63, 0.25 0.38" stroke="#000000" stroke-width="1" fill="none"></path></g><g transform="translate(504.68359375 161.076904296875) rotate(0 26.5 12.5)"><text x="26.5" y="18" font-family="Virgil, Segoe UI Emoji" font-size="20px" fill="#000000" text-anchor="middle" style="white-space: pre;" direction="ltr">API-1</text></g><g stroke-linecap="round" transform="translate(487.158203125 237.886474609375) rotate(0 44 42.5)"><path d="M-1.39 -0.42 C28.61 -1.33, 57.7 -0.22, 86.42 -0.53 M0.51 -0.09 C24 -0.23, 46.63 -1.25, 87.18 0.9 M87.35 -1.92 C89.87 19.34, 88.84 34.39, 87.31 86.72 M87.03 -0.43 C87.58 30.83, 87.63 61.07, 87.94 85.33 M89.93 85.68 C63.39 84.78, 42.57 84.96, 0.45 83.84 M87.97 84.51 C67.09 84.91, 45.12 85.25, -0.04 84.98 M1.67 86.73 C1.45 51.27, 1.65 19.14, -1.6 0.94 M0.26 85.98 C1.39 66.87, 1.5 49.42, -0.13 0.38" stroke="#000000" stroke-width="1" fill="none"></path></g><g transform="translate(500.158203125 267.886474609375) rotate(0 31 12.5)"><text x="31" y="18" font-family="Virgil, Segoe UI Emoji" font-size="20px" fill="#000000" text-anchor="middle" style="white-space: pre;" direction="ltr">API-2</text></g><g stroke-linecap="round" transform="translate(483.6162109375 349.971435546875) rotate(0 44 42.5)"><path d="M-1.35 0.3 C26.04 1.62, 53.96 -1.45, 86.46 1.97 M-0.21 0.12 C21.94 -1.15, 41.63 0.61, 88.01 -0.97 M89.79 0.97 C89.7 23.87, 86.51 50.06, 88.52 84.08 M88.65 0.45 C87.6 24.61, 88 48.78, 88.78 85.22 M88.4 85.18 C62.21 85.22, 39.07 83.79, -1.56 85.06 M88.4 84.68 C70.67 84.89, 52.51 84.32, -0.14 85.89 M0.63 84.49 C1.25 67.7, 0.08 49.72, -1.73 1.61 M0.37 84.11 C-0.14 51.95, 0.54 20.28, -0.03 0.92" stroke="#000000" stroke-width="1" fill="none"></path></g><g transform="translate(497.1162109375 379.971435546875) rotate(0 30.5 12.5)"><text x="30.5" y="18" font-family="Virgil, Segoe UI Emoji" font-size="20px" fill="#000000" text-anchor="middle" style="white-space: pre;" direction="ltr">API-3</text></g><g stroke-linecap="round" transform="translate(761.33984375 197.565185546875) rotate(0 68 87.5)"><path d="M67.72 -0.65 C76.69 -2.2, 86.82 2.85, 95.16 7.5 C103.5 12.16, 111.56 18.71, 117.78 27.27 C124 35.83, 129.49 47.5, 132.47 58.88 C135.44 70.25, 136.61 83.6, 135.63 95.51 C134.64 107.42, 131.08 119.99, 126.56 130.33 C122.04 140.67, 115.71 150.34, 108.5 157.56 C101.29 164.79, 92.08 170.9, 83.3 173.67 C74.52 176.45, 65.02 176.76, 55.82 174.19 C46.63 171.62, 35.84 165.17, 28.12 158.26 C20.4 151.35, 14.06 142.8, 9.49 132.71 C4.93 122.62, 1.9 109.5, 0.7 97.72 C-0.5 85.94, -0.48 73.32, 2.28 62.04 C5.03 50.77, 10.93 38.94, 17.21 30.07 C23.48 21.2, 30.87 13.64, 39.95 8.8 C49.02 3.96, 65.93 2.22, 71.64 1.02 C77.35 -0.17, 74.44 0.31, 74.2 1.63 M98.54 10.69 C106.62 14.24, 114.17 22.87, 120.08 31.63 C125.99 40.39, 131.32 51.94, 134 63.24 C136.67 74.54, 137.77 87.54, 136.13 99.45 C134.5 111.35, 129.07 124.53, 124.2 134.67 C119.34 144.81, 114.32 153.9, 106.92 160.3 C99.52 166.71, 89.01 171.26, 79.8 173.13 C70.6 175, 60.65 174.16, 51.68 171.5 C42.71 168.84, 33.09 164.49, 25.98 157.17 C18.87 149.85, 13.3 138.47, 9.01 127.6 C4.72 116.73, 1.1 103.79, 0.26 91.94 C-0.57 80.1, 0.69 67.65, 3.99 56.55 C7.3 45.46, 13.37 33.75, 20.08 25.37 C26.79 16.99, 35.66 10.57, 44.24 6.25 C52.82 1.93, 62.72 -1.24, 71.59 -0.54 C80.45 0.16, 92.95 8.36, 97.42 10.46 C101.9 12.56, 99 11.05, 98.45 12.05" stroke="#000000" stroke-width="1" fill="none"></path></g><g transform="translate(779.83984375 272.565185546875) rotate(0 49.5 12.5)"><text x="49.5" y="18" font-family="Virgil, Segoe UI Emoji" font-size="20px" fill="#000000" text-anchor="middle" style="white-space: pre;" direction="ltr">MongoDB </text></g><g stroke-linecap="round"><g transform="translate(579.578125 170.91740510686765) rotate(0 87.15616432876641 39.470365152443875)"><path d="M0.77 -0.22 C15.48 6.27, 59.3 25.36, 88.27 38.6 C117.24 51.84, 160.24 72.21, 174.6 79.22 M-0.29 -1.38 C14.32 5.26, 58.66 26.04, 87.68 39.66 C116.7 53.28, 159.35 73.83, 173.84 80.33" stroke="#000000" stroke-width="1" fill="none"></path></g><g transform="translate(579.578125 170.91740510686765) rotate(0 87.15616432876641 39.470365152443875)"><path d="M143.59 78.87 C151.4 78.36, 161.2 78.91, 175.56 81.79 M144.78 77.85 C154.8 79.72, 166.48 79.24, 174.24 79.9" stroke="#000000" stroke-width="1" fill="none"></path></g><g transform="translate(579.578125 170.91740510686765) rotate(0 87.15616432876641 39.470365152443875)"><path d="M152.24 60.26 C157.4 65.38, 164.61 71.51, 175.56 81.79 M153.43 59.24 C160.08 68.15, 168.48 74.73, 174.24 79.9" stroke="#000000" stroke-width="1" fill="none"></path></g></g><g stroke-linecap="round"><g transform="translate(572.921875 283.330810546875) rotate(0 91.38294648747888 -1.0311283798353372)"><path d="M0.9 0.71 C31.21 0.44, 150.71 -2.21, 180.62 -2.78 M-0.08 0.04 C30.7 0.02, 152.4 -1.24, 182.85 -1.52" stroke="#000000" stroke-width="1" fill="none"></path></g><g transform="translate(572.921875 283.330810546875) rotate(0 91.38294648747888 -1.0311283798353372)"><path d="M155.95 7.47 C159.61 4.69, 165.38 4.47, 182.53 -2.87 M154.33 8.11 C162.63 5.99, 169.3 3.26, 183.05 -0.97" stroke="#000000" stroke-width="1" fill="none"></path></g><g transform="translate(572.921875 283.330810546875) rotate(0 91.38294648747888 -1.0311283798353372)"><path d="M155.75 -13.05 C159.26 -11.7, 165.07 -7.79, 182.53 -2.87 M154.13 -12.41 C162.44 -9.07, 169.16 -6.33, 183.05 -0.97" stroke="#000000" stroke-width="1" fill="none"></path></g></g><g stroke-linecap="round"><g transform="translate(573.1968302522005 397.92357717712923) rotate(0 95.19489244473448 -36.44978308671779)"><path d="M-1.01 0.84 C30.83 -11.35, 159.56 -59.82, 191.4 -71.98 M0.67 0.23 C32.41 -11.79, 159.63 -61.33, 191.05 -73.74" stroke="#000000" stroke-width="1" fill="none"></path></g><g transform="translate(573.1968302522005 397.92357717712923) rotate(0 95.19489244473448 -36.44978308671779)"><path d="M169.93 -52 C177.01 -60.69, 184.22 -65.02, 192.62 -74.52 M168.76 -54.31 C176.57 -62.81, 185.94 -69.56, 190.5 -73.24" stroke="#000000" stroke-width="1" fill="none"></path></g><g transform="translate(573.1968302522005 397.92357717712923) rotate(0 95.19489244473448 -36.44978308671779)"><path d="M162.45 -71.11 C172.2 -73.37, 181.91 -71.34, 192.62 -74.52 M161.27 -73.42 C172.01 -74.53, 184.29 -73.83, 190.5 -73.24" stroke="#000000" stroke-width="1" fill="none"></path></g></g><g stroke-linecap="round" transform="translate(279.328125 49.899169921875) rotate(0 316.236328125 244.611328125)"><path d="M0.68 -0.26 C158.59 1.97, 316.28 2.16, 632.96 -0.21 M0.31 0.3 C240.31 1.27, 480.7 1.98, 632.26 0.13 M633.25 0.43 C630.78 167.65, 630.77 335.65, 632.49 489.13 M632.3 -0.35 C633.5 109.04, 632.82 218.21, 632.11 489.46 M632.57 489.94 C494.89 490.93, 356.61 490.89, 0.59 488.75 M632.71 488.98 C420.74 490.67, 209.59 490.43, 0.16 489.05 M0.45 488.69 C1.64 294.27, 1.6 98.11, 0.19 -0.48 M0.15 489.62 C0.47 320.1, 0.13 151.35, -0.17 -0.13" stroke="#000000" stroke-width="1" fill="none"></path></g><g transform="translate(299.810546875 64.895263671875) rotate(0 115 12.5)"><text x="0" y="18" font-family="Virgil, Segoe UI Emoji" font-size="20px" fill="#000000" text-anchor="start" style="white-space: pre;" direction="ltr">Docker private network</text></g><g stroke-linecap="round" transform="translate(10 10) rotate(0 477.830078125 288.783203125)"><path d="M0.35 -0.38 C250.55 -2.97, 500.72 -4.14, 954.95 0.28 M0.38 -0.15 C237.22 -3.7, 474.91 -3.78, 956.03 -0.33 M955.83 -0.23 C954.42 117.53, 953.86 234.89, 955.43 577.07 M956.03 0.15 C953.61 223.84, 953.64 447.72, 955.98 577.89 M955.05 578.05 C682.56 577.91, 409.01 577.5, -0.44 578.22 M955.32 577.21 C594.81 580.74, 233.7 580.26, 0.03 577.19 M0.28 576.9 C1.2 457.93, 1.56 338.07, -0.17 -0.4 M0.14 577.67 C-1.23 452.63, -1.41 327, -0.32 -0.15" stroke="#000000" stroke-width="1" fill="none"></path></g><g transform="translate(30.251953125 24.4921875) rotate(0 64.5 12.5)"><text x="0" y="18" font-family="Virgil, Segoe UI Emoji" font-size="20px" fill="#000000" text-anchor="start" style="white-space: pre;" direction="ltr">Host network</text></g><g stroke-linecap="round"><g transform="translate(106.021484375 261.6975240917168) rotate(0 109.630966045641 0.657553867288641)"><path d="M-0.65 0.32 C35.93 0.32, 183.14 0.33, 219.91 0.71 M1.21 -0.55 C37.58 -0.47, 182.56 1.62, 218.88 1.87" stroke="#000000" stroke-width="1" fill="none"></path></g><g transform="translate(106.021484375 261.6975240917168) rotate(0 109.630966045641 0.657553867288641)"><path d="M191.12 11.55 C198.84 8.45, 211.56 7.25, 218.35 1.07 M190.01 12.23 C201.61 8.75, 213.19 3.39, 218.7 2.27" stroke="#000000" stroke-width="1" fill="none"></path></g><g transform="translate(106.021484375 261.6975240917168) rotate(0 109.630966045641 0.657553867288641)"><path d="M191.34 -8.97 C199.11 -5.16, 211.75 0.56, 218.35 1.07 M190.23 -8.29 C201.63 -3.69, 213.12 -0.98, 218.7 2.27" stroke="#000000" stroke-width="1" fill="none"></path></g></g><g stroke-linecap="round" transform="translate(36.021484375 239.5068359375) rotate(0 34.5 31.265625)"><path d="M0.65 -0.23 C23.27 -1.12, 43.93 -0.41, 69.41 -0.68 M-0.66 -0.71 C17.97 0.51, 37.91 -0.32, 69.8 0.55 M70.64 1.73 C70.5 20.19, 66.8 40.96, 69.39 62.65 M68.81 -0.97 C69.69 24.03, 69.58 46.2, 68.23 63.19 M69.76 62.4 C55.23 63.64, 40.32 64.5, -1.62 62 M68.7 61.81 C52.71 63.45, 36.62 63.52, -0.9 63.04 M1.08 63.16 C0.06 47.21, -1.44 28.52, -1.28 -1.51 M-0.46 62.05 C0.52 43.17, -0.69 24.58, -0.54 -0.38" stroke="#000000" stroke-width="1" fill="none"></path></g><g stroke-linecap="round"><g transform="translate(401.06640625 179.1137989973255) rotate(0 43.314007423794806 0.19823775701277668)"><path d="M-0.24 0.9 C14.34 0.95, 73.8 1.32, 88.46 1.11 M-1.83 0.33 C12.61 -0.05, 73.28 -0.79, 88.1 -0.78" stroke="#000000" stroke-width="1" fill="none"></path></g><g transform="translate(401.06640625 179.1137989973255) rotate(0 43.314007423794806 0.19823775701277668)"><path d="M61.49 11.55 C71.37 6.33, 79.62 0.46, 88.01 -2.58 M60.53 10.08 C68.43 7.55, 77.25 3.34, 88.01 -1.6" stroke="#000000" stroke-width="1" fill="none"></path></g><g transform="translate(401.06640625 179.1137989973255) rotate(0 43.314007423794806 0.19823775701277668)"><path d="M61.34 -8.97 C71.42 -6.38, 79.72 -4.44, 88.01 -2.58 M60.39 -10.44 C68.35 -7.01, 77.21 -5.25, 88.01 -1.6" stroke="#000000" stroke-width="1" fill="none"></path></g></g><g stroke-linecap="round"><g transform="translate(397.4257812500001 280.3362495330037) rotate(0 40.238526752698135 -0.7306874545992628)"><path d="M0.23 -0.98 C13.82 -1.24, 68.19 -0.86, 81.59 -0.96 M-1.11 1.12 C12.37 0.49, 67.52 -2.38, 80.98 -2.58" stroke="#000000" stroke-width="1" fill="none"></path></g><g transform="translate(397.4257812500001 280.3362495330037) rotate(0 40.238526752698135 -0.7306874545992628)"><path d="M51.55 9.76 C63.17 4.63, 70.6 3.05, 79.17 -3.66 M52.25 7.73 C60.16 6.26, 65.53 2.97, 81.4 -1.94" stroke="#000000" stroke-width="1" fill="none"></path></g><g transform="translate(397.4257812500001 280.3362495330037) rotate(0 40.238526752698135 -0.7306874545992628)"><path d="M50.8 -10.74 C62.75 -9.63, 70.41 -4.96, 79.17 -3.66 M51.5 -12.78 C59.68 -9.55, 65.22 -8.16, 81.4 -1.94" stroke="#000000" stroke-width="1" fill="none"></path></g></g><g stroke-linecap="round"><g transform="translate(400.47265625 388.4107485831429) rotate(0 38.00446934472302 -0.5595426047792103)"><path d="M0.81 0.66 C13.5 0.39, 63.47 -1.44, 76.24 -1.77 M-0.23 -0.05 C12.3 -0.13, 62.37 -0.52, 75.28 -0.53" stroke="#000000" stroke-width="1" fill="none"></path></g><g transform="translate(400.47265625 388.4107485831429) rotate(0 38.00446934472302 -0.5595426047792103)"><path d="M48.24 9.85 C54.85 8.42, 64.15 5.2, 73.34 0.75 M47.43 8.88 C59.06 5.6, 69.29 2.24, 74.75 -0.39" stroke="#000000" stroke-width="1" fill="none"></path></g><g transform="translate(400.47265625 388.4107485831429) rotate(0 38.00446934472302 -0.5595426047792103)"><path d="M48.14 -10.68 C54.74 -5.81, 64.07 -2.74, 73.34 0.75 M47.33 -11.64 C58.8 -6.9, 69.07 -2.23, 74.75 -0.39" stroke="#000000" stroke-width="1" fill="none"></path></g></g><g transform="translate(626.26171875 156.27734375) rotate(0 64 12.5)"><text x="0" y="18" font-family="Virgil, Segoe UI Emoji" font-size="20px" fill="#000000" text-anchor="start" style="white-space: pre;" direction="ltr">DB requests</text></g><g transform="translate(41.52734375 258.2724609375) rotate(0 28 12.5)"><text x="28" y="18" font-family="Virgil, Segoe UI Emoji" font-size="20px" fill="#000000" text-anchor="middle" style="white-space: pre;" direction="ltr">Client</text></g><g transform="translate(332.3203125 130.42108543882978) rotate(0 29 8)"><text x="0" y="11" font-family="Virgil, Segoe UI Emoji" font-size="12.26313164893617px" fill="#000000" text-anchor="start" style="white-space: pre;" direction="ltr">8080:80</text></g><g transform="translate(497.546875 137.6953125) rotate(0 16.5 7)"><text x="0" y="10" font-family="Virgil, Segoe UI Emoji" font-size="11.331250000000004px" fill="#000000" text-anchor="start" style="white-space: pre;" direction="ltr">3000</text></g><g transform="translate(497.91796875 245.30078125) rotate(0 16.5 7)"><text x="0" y="10" font-family="Virgil, Segoe UI Emoji" font-size="11.331250000000004px" fill="#000000" text-anchor="start" style="white-space: pre;" direction="ltr">3000</text></g><g transform="translate(501.1484375 359.49609375) rotate(0 16.5 7)"><text x="0" y="10" font-family="Virgil, Segoe UI Emoji" font-size="11.331250000000004px" fill="#000000" text-anchor="start" style="white-space: pre;" direction="ltr">3000</text></g><g transform="translate(796.08984375 213.9609375) rotate(0 35 7)"><text x="0" y="10" font-family="Virgil, Segoe UI Emoji" font-size="11.331250000000004px" fill="#000000" text-anchor="start" style="white-space: pre;" direction="ltr">27018:27017</text></g><g transform="translate(118.3017578125 235.84375) rotate(0 77.5 10)"><text x="0" y="14" font-family="Virgil, Segoe UI Emoji" font-size="16px" fill="#000000" text-anchor="start" style="white-space: pre;" direction="ltr">curl locahost:8080</text></g></svg>